<svg width="256" height="256" viewBox="0 0 256 256" fill="none" xmlns="http://www.w3.org/2000/svg">
<rect width="256" height="256" rx="52" fill="url(#paint0_linear_535_10)"/>
<path d="M128.819 30.7789C74.6341 30.7789 30.8081 74.8041 30.8081 128.989C30.8081 183.174 74.8334 227 128.819 227C182.805 227 226.83 182.975 226.83 128.989C226.83 75.0033 182.805 30.7789 128.819 30.7789ZM215.475 156.281C214.479 159.468 213.284 162.655 211.889 165.843C206.311 176.6 196.749 184.568 185.195 187.955C148.74 198.513 108.898 198.513 72.4428 187.756C60.8887 184.369 51.3267 176.6 45.7488 165.644C44.3543 162.456 43.1591 159.468 42.163 156.082C39.9717 147.117 40.3702 137.754 43.5575 129.188C55.3108 98.3108 75.0326 70.4215 100.332 48.9069C108.5 41.9346 118.659 38.3488 128.62 38.3488C138.78 38.3488 148.74 41.9346 156.908 48.9069C182.207 70.4215 201.929 98.3108 213.682 129.387C217.268 137.953 217.666 147.316 215.475 156.281Z" fill="url(#paint1_linear_535_10)"/>
<path d="M101.129 170.623C99.3364 170.026 97.5436 169.627 96.1491 169.029C92.1649 167.635 90.372 163.053 92.5633 159.268C94.157 156.479 97.5436 155.284 100.532 156.28C110.691 159.866 134.198 165.643 153.521 153.69C156.111 152.097 159.298 152.495 161.49 154.487L161.888 154.686C165.076 157.675 164.677 163.053 160.892 165.245C139.378 178.193 115.472 174.807 101.129 170.623Z" fill="url(#paint2_linear_535_10)"/>
<defs>
<linearGradient id="paint0_linear_535_10" x1="0" y1="128" x2="256" y2="128" gradientUnits="userSpaceOnUse">
<stop stop-color="#E1CEFF"/>
<stop offset="1" stop-color="#FFCADA"/>
</linearGradient>
<linearGradient id="paint1_linear_535_10" x1="-26.9311" y1="128.79" x2="243.151" y2="136.452" gradientUnits="userSpaceOnUse">
<stop stop-color="#722AA3"/>
<stop offset="1" stop-color="#FF4081"/>
</linearGradient>
<linearGradient id="paint2_linear_535_10" x1="-0.113201" y1="128.79" x2="206.758" y2="174.761" gradientUnits="userSpaceOnUse">
<stop stop-color="#722AA3"/>
<stop offset="1" stop-color="#FF4081"/>
</linearGradient>
</defs>
</svg>
