<svg width="25" height="25" viewBox="0 0 25 25" fill="none" xmlns="http://www.w3.org/2000/svg">
<g clip-path="url(#clip0_15887_1322)">
<rect width="25" height="25" rx="2" fill="url(#paint0_linear_15887_1322)"/>
<path d="M12.4792 3.64746C7.67549 3.64746 3.79016 7.55045 3.79016 12.3541C3.79016 17.1578 7.69315 21.0431 12.4792 21.0431C17.2652 21.0431 21.1682 17.1401 21.1682 12.3541C21.1682 7.56811 17.2652 3.64746 12.4792 3.64746ZM20.1615 14.7736C20.0732 15.0562 19.9672 15.3388 19.8436 15.6213C19.3491 16.575 18.5014 17.2814 17.4771 17.5816C14.2452 18.5177 10.7131 18.5177 7.48122 17.564C6.45691 17.2638 5.6092 16.575 5.1147 15.6037C4.99108 15.3211 4.88512 15.0562 4.79681 14.756C4.60255 13.9612 4.63787 13.1312 4.92044 12.3718C5.96241 9.63439 7.71081 7.16191 9.9537 5.25457C10.6778 4.63645 11.5785 4.31856 12.4615 4.31856C13.3622 4.31856 14.2452 4.63645 14.9693 5.25457C17.2122 7.16191 18.9606 9.63439 20.0026 12.3894C20.3205 13.1488 20.3558 13.9789 20.1615 14.7736Z" fill="url(#paint1_linear_15887_1322)"/>
<path d="M10.0243 16.0454C9.8654 15.9924 9.70646 15.9571 9.58283 15.9041C9.22962 15.7804 9.07068 15.3743 9.26494 15.0387C9.40623 14.7915 9.70646 14.6855 9.97137 14.7738C10.8721 15.0917 12.956 15.6038 14.6691 14.5442C14.8987 14.4029 15.1812 14.4382 15.3755 14.6149L15.4108 14.6325C15.6934 14.8974 15.6581 15.3743 15.3225 15.5685C13.4152 16.7165 11.2959 16.4162 10.0243 16.0454Z" fill="url(#paint2_linear_15887_1322)"/>
</g>
<defs>
<linearGradient id="paint0_linear_15887_1322" x1="0" y1="12.9032" x2="24.5192" y2="12.9032" gradientUnits="userSpaceOnUse">
<stop stop-color="#D9D9D9"/>
<stop offset="0.0001" stop-color="#E1CEFF"/>
<stop offset="1" stop-color="#FFCADA"/>
</linearGradient>
<linearGradient id="paint1_linear_15887_1322" x1="3.99621" y1="11.7711" x2="21.4365" y2="11.2345" gradientUnits="userSpaceOnUse">
<stop stop-color="#722AA3"/>
<stop offset="1" stop-color="#FF4081"/>
</linearGradient>
<linearGradient id="paint2_linear_15887_1322" x1="9.25727" y1="15.3543" x2="15.6384" y2="14.6977" gradientUnits="userSpaceOnUse">
<stop stop-color="#722AA3"/>
<stop offset="1" stop-color="#FF4081"/>
</linearGradient>
<clipPath id="clip0_15887_1322">
<rect width="25" height="25" fill="white"/>
</clipPath>
</defs>
</svg>
